<svg width="204" height="44" viewBox="0 0 204 44" fill="none" xmlns="http://www.w3.org/2000/svg">
<g clip-path="url(#clip0_7248_5324)">
<path d="M48.0938 35.4218V35.3373C48.0938 34.6286 49.2005 34.3742 49.2005 33.1838V18.5033C49.2005 17.313 48.0938 17.0585 48.0938 16.3497V16.2367C48.0938 15.9537 48.3496 15.7836 48.7458 15.7836H55.2134C62.7296 15.7836 67.4665 20.0635 67.4665 25.8726C67.4665 31.6818 63.0141 35.9057 56.5465 35.9057H48.7458C48.3496 35.9057 48.0938 35.7355 48.0938 35.424V35.4218ZM56.9725 34.1744C60.4325 34.1744 63.0141 31.8508 63.0141 27.685C63.0141 22.1018 59.61 17.5115 55.1004 17.5115H54.5611C53.9376 17.5115 53.4268 17.7946 53.4268 18.7019V31.7387C53.4268 33.2968 54.2208 34.1755 55.5265 34.1755H56.9725V34.1744Z" fill="#0D0D0D" fill-opacity="0.99"/>
<path d="M81.6747 31.9067C81.5045 33.5515 79.5753 36.1867 75.9176 36.1867C71.9746 36.1867 69.0527 33.3527 69.0527 28.9885C69.0527 24.8787 72.202 22.0164 75.9176 22.0164C79.6334 22.0164 81.2784 24.17 81.2784 26.0406C81.2784 27.0037 80.7963 27.5711 80.0299 27.9112L73.7324 30.7734C74.4705 32.3325 75.775 33.2397 77.4769 33.2397C78.9801 33.2397 80.1715 32.4751 80.7106 31.5964C81.0511 31.1706 81.7032 31.3122 81.6747 31.9079V31.9067ZM71.8889 20.0043C71.6902 19.6642 71.8032 19.2396 72.0591 19.0125L76.9949 15.2713C77.5899 14.7897 78.1292 14.9598 78.441 15.5829L79.2074 17.1419C79.5191 17.7091 79.3204 18.3037 78.6397 18.4738L72.9102 20.3158C72.5137 20.4288 72.1162 20.3444 71.8889 20.0043ZM72.9946 27.0335C72.9946 27.9122 73.0803 28.7339 73.2778 29.4712L76.9365 27.6292C77.4471 27.3736 77.6744 26.8919 77.6744 26.2975C77.6744 25.277 76.9365 23.2649 75.4048 23.2649C73.873 23.2649 72.9934 24.8799 72.9934 27.0345L72.9946 27.0335Z" fill="#0D0D0D" fill-opacity="0.99"/>
<path d="M98.1896 28.875C98.1896 33.2392 95.1271 36.1859 91.5804 36.1859C89.9927 36.1859 88.7727 35.6473 87.8645 34.684V35.3073C87.8645 35.7604 87.6372 35.9303 87.2124 35.9303L83.5537 35.9017C83.1846 35.9017 82.9585 35.7318 82.9585 35.4203V35.3358C82.9585 34.6554 84.0642 34.3725 84.0642 33.1535V19.2664C84.0642 17.9916 82.7598 17.8215 82.7598 17.1127V17.0283C82.7598 16.7167 82.9014 16.5752 83.4121 16.3481L87.0706 14.6476C87.7229 14.336 88.262 14.5061 88.262 15.2148V23.1502C89.0572 22.4129 90.22 22.0169 91.5816 22.0169C94.8712 22.0169 98.1906 24.4261 98.1906 28.875H98.1896ZM94.0477 30.5754C94.0477 27.0044 92.8277 23.2358 90.5591 23.2358C89.2537 23.2358 88.261 24.3976 88.261 26.0982V31.2283C88.261 33.1547 89.6797 34.9694 91.1543 34.9694C92.9979 34.9694 94.0464 33.4116 94.0464 30.5764L94.0477 30.5754Z" fill="#0D0D0D" fill-opacity="0.99"/>
<path d="M114.871 28.875C114.871 33.2392 111.808 36.1859 108.262 36.1859C106.673 36.1859 105.453 35.6473 104.546 34.684V35.3073C104.546 35.7604 104.32 35.9303 103.894 35.9303L100.235 35.9017C99.8662 35.9017 99.6401 35.7318 99.6401 35.4203V35.3358C99.6401 34.6554 100.747 34.3725 100.747 33.1535V19.2664C100.747 17.9916 99.4414 17.8215 99.4414 17.1127V17.0283C99.4414 16.7167 99.583 16.5752 100.094 16.3481L103.752 14.6476C104.405 14.336 104.944 14.5061 104.944 15.2148V23.1502C105.738 22.4129 106.9 22.0169 108.262 22.0169C111.552 22.0169 114.871 24.4261 114.871 28.875ZM110.73 30.5754C110.73 27.0044 109.511 23.2358 107.241 23.2358C105.936 23.2358 104.944 24.3976 104.944 26.0982V31.2283C104.944 33.1547 106.361 34.9694 107.836 34.9694C109.679 34.9694 110.729 33.4116 110.729 30.5764L110.73 30.5754Z" fill="#0D0D0D" fill-opacity="0.99"/>
<path d="M116.318 29.0178C116.318 24.9079 119.694 22.0171 123.666 22.0171C128.034 22.0171 131.296 25.134 131.296 29.1594C131.296 33.1845 128.232 36.1873 124.09 36.1873C119.524 36.1873 116.318 32.9564 116.318 29.0178ZM127.041 30.8312C127.041 27.7419 125.509 23.2645 123.098 23.2645C121.396 23.2645 120.488 24.7094 120.488 27.4016C120.488 30.2926 122.02 34.9398 124.601 34.9398C126.133 34.9398 127.041 33.4378 127.041 30.8312Z" fill="#0D0D0D" fill-opacity="0.99"/>
<path d="M147.179 35.9029L145.222 30.7169H136.203L134.245 35.9029H132.26L139.719 16.3766H141.705L149.137 35.9029H147.18H147.179ZM136.855 29.0448H144.57L140.712 18.8429L136.855 29.0448Z" fill="#0D0D0D" fill-opacity="0.99"/>
<path d="M157.394 17.1997C154.898 17.1997 154.188 18.8717 154.188 20.9979V22.6699H157.563V24.2278H154.188V35.9042H152.373V24.2278H149.764V22.6699H152.373V21.1953C152.373 17.8799 153.678 15.4706 157.138 15.4706H158.386V17.1997H157.394Z" fill="#0D0D0D" fill-opacity="0.99"/>
<path d="M168.395 22.7251L168.055 24.4541C167.374 24.1711 166.75 24.0855 166.268 24.0855C163.12 24.0855 162.156 27.6567 162.156 30.9162V35.9034H160.312V22.6691H162.156V25.9001C162.808 23.6609 164.227 22.329 166.297 22.329C167.035 22.329 167.886 22.4706 168.396 22.7251H168.395Z" fill="#0D0D0D" fill-opacity="0.99"/>
<path d="M170.441 17.7939C170.441 17.0292 171.094 16.4894 171.832 16.4894C172.625 16.4894 173.25 17.0281 173.25 17.7939C173.25 18.5597 172.627 19.0687 171.832 19.0687C171.094 19.0687 170.441 18.53 170.441 17.7939ZM170.923 35.9027V22.6683H172.739V35.9027H170.923Z" fill="#0D0D0D" fill-opacity="0.99"/>
<path d="M176.345 29.2717C176.345 25.0774 179.579 22.3279 183.38 22.3279C185.252 22.3279 186.954 23.0367 188.117 24.1415L187.01 25.3889C186.102 24.5672 184.826 24.057 183.436 24.057C180.514 24.057 178.16 26.1548 178.16 29.2717C178.16 32.3883 180.514 34.5145 183.436 34.5145C184.825 34.5145 186.074 34.0045 187.01 33.1827L188.145 34.43C186.953 35.5636 185.252 36.2437 183.379 36.2437C179.579 36.2437 176.344 33.4657 176.344 29.2717H176.345Z" fill="#0D0D0D" fill-opacity="0.99"/>
<path d="M202.184 22.6682H203.999V35.9026H202.184V33.1531C201.22 34.9668 199.178 36.2427 196.823 36.2427C193.221 36.2427 190.186 33.2102 190.186 29.2706C190.186 25.3307 193.108 22.3269 196.879 22.3269C199.149 22.3269 201.192 23.4328 202.184 25.2462V22.667V22.6682ZM202.184 29.3275C202.184 26.2392 199.688 24.056 197.022 24.056C194.356 24.056 191.973 26.4366 191.973 29.2706C191.973 32.1043 194.243 34.5137 197.051 34.5137C199.859 34.5137 202.185 32.303 202.185 29.3275H202.184Z" fill="#0D0D0D" fill-opacity="0.99"/>
<path d="M40.6068 23.5778C40.6068 25.9506 39.6861 28.1715 38.0092 29.8469L31.9403 35.9105C31.9461 35.8228 31.9519 35.7406 31.9576 35.6526C31.9631 35.5704 31.9689 35.4827 31.9689 35.4005C31.9747 35.2303 31.9804 35.0604 31.9804 34.8845C31.9804 31.738 30.7547 28.7798 28.5262 26.5476L22.375 20.4016L25.4647 17.3145C28.9247 13.8575 34.554 13.8575 38.007 17.3145C39.6838 18.9842 40.6046 21.2108 40.6046 23.5778H40.6068Z" fill="#01AC9C"/>
<path d="M12.0784 26.5488C9.8441 28.7812 8.61845 31.7395 8.61845 34.886C8.61845 35.0616 8.62416 35.2318 8.62987 35.402C8.64128 35.5719 8.65386 35.742 8.66529 35.912L2.59067 29.8484C-0.863558 26.3914 -0.863558 20.7728 2.59067 17.317C4.26753 15.6416 6.4961 14.7217 8.86518 14.7217C11.2343 14.7217 13.4628 15.6416 15.134 17.317L18.2307 20.4042L12.0795 26.55L12.0784 26.5488Z" fill="#D76441"/>
<path d="M29.0473 34.8858C29.0473 36.0692 28.8189 37.2175 28.3791 38.2776C27.9393 39.3437 27.2882 40.3161 26.4499 41.1549C24.8026 42.8017 22.6152 43.7205 20.3158 43.7445H20.2804C17.9638 43.7092 15.7889 42.795 14.1464 41.1549C12.4695 39.4796 11.5488 37.2529 11.5488 34.8858C11.5488 32.5188 12.4752 30.2988 14.1464 28.6225L20.2975 22.4765L26.4486 28.6225C28.1255 30.2978 29.0463 32.5188 29.0463 34.8858H29.0473Z" fill="#FF9B33"/>
<path d="M20.3016 14.4578C24.2974 14.4578 27.5368 11.2213 27.5368 7.22885C27.5368 3.23645 24.2974 -6.10352e-05 20.3016 -6.10352e-05C16.3057 -6.10352e-05 13.0664 3.23645 13.0664 7.22885C13.0664 11.2213 16.3057 14.4578 20.3016 14.4578Z" fill="#FF9B33"/>
</g>
<defs>
<clipPath id="clip0_7248_5324">
<rect width="204" height="44" fill="white"/>
</clipPath>
</defs>
</svg>
